<svg width="19" height="19" viewBox="0 0 19 19" fill="none" xmlns="http://www.w3.org/2000/svg">
<path d="M13.3155 13.9937L13.6154 14.2936L17.4894 18.1676L18.1669 17.4902L14.2929 13.6162L13.9929 13.3162L14.2543 12.9821C15.2368 11.7263 15.7707 10.1779 15.7712 8.58341L13.3155 13.9937ZM13.3155 13.9937L12.9814 14.255M13.3155 13.9937L12.9814 14.255M12.9814 14.255C11.7258 15.2369 10.1777 15.7706 8.58366 15.7709L12.9814 14.255ZM8.58356 15.7709C4.62103 15.7709 1.39616 12.546 1.39616 8.58341C1.39616 4.62084 4.62109 1.39591 8.58366 1.39591C12.5462 1.39591 15.7711 4.62078 15.7712 8.5833L8.58356 15.7709ZM14.8128 8.58341C14.8128 5.14765 12.0194 2.35425 8.58366 2.35425C5.1479 2.35425 2.35449 5.14765 2.35449 8.58341C2.35449 12.0192 5.1479 14.8126 8.58366 14.8126C12.0194 14.8126 14.8128 12.0192 14.8128 8.58341Z" fill="black" stroke="#023586" stroke-width="0.958333"/>
</svg>
